<svg width="23" height="24" viewBox="0 0 23 24" fill="none" xmlns="http://www.w3.org/2000/svg">
<path fill-rule="evenodd" clip-rule="evenodd" d="M11.4822 6.87685C11.3225 5.53803 10.1832 4.5 8.80137 4.5C7.41956 4.5 6.28019 5.53803 6.12051 6.87685C3.86811 7.89792 2.30137 10.166 2.30137 12.8V17.3159L0.797919 20.2945C0.495768 20.8931 0.93083 21.6 1.60137 21.6H6.255C6.62566 22.6487 7.62577 23.4 8.80137 23.4C9.97697 23.4 10.9771 22.6487 11.3477 21.6H16.0014C16.6719 21.6 17.107 20.8931 16.8048 20.2945L15.3014 17.3159V12.8C15.3014 10.166 13.7346 7.89792 11.4822 6.87685ZM13.5979 17.9357L14.5389 19.8H3.0638L4.00482 17.9357C4.0683 17.81 4.10137 17.671 4.10137 17.5302V12.8C4.10137 10.2043 6.20563 8.1 8.80137 8.1C11.3971 8.1 13.5014 10.2043 13.5014 12.8V17.5302C13.5014 17.671 13.5344 17.81 13.5979 17.9357Z" fill="#F6F6F6"/>
<rect x="11.5" width="10.8" height="10.8" rx="5.4" fill="#FC5A5A"/>
</svg>
