<svg width="16" height="16" viewBox="0 0 16 16" fill="none" xmlns="http://www.w3.org/2000/svg">
<path d="M8.662 5.69242L9.362 5.69242V5.69242H8.662ZM9.93008 6.96158L9.92948 7.66158L9.9303 7.66158L9.93008 6.96158ZM8.662 2.26808L7.962 2.26749V2.26808H8.662ZM9.92576 1V0.299994L9.92278 0.300006L9.92576 1ZM13.3598 1L13.3628 0.3H13.3598V1ZM14.6236 2.26808H15.3236V2.26749L14.6236 2.26808ZM14.6236 5.71293L15.3236 5.7147V5.71293H14.6236ZM14.2515 6.5999L14.7433 7.09805V7.09805L14.2515 6.5999ZM13.3598 6.9605L13.3671 6.2605L13.3596 6.2605L13.3598 6.9605ZM2.26808 14.6236L2.26748 15.3236H2.2683L2.26808 14.6236ZM1 13.3555H0.3L0.3 13.3561L1 13.3555ZM5.69674 14.6225L5.69696 15.3225L5.70508 15.3225L5.71319 15.3223L5.69674 14.6225ZM6.9605 13.3749L7.66004 13.4004L7.6605 13.3877V13.3749H6.9605ZM6.9605 9.93008H7.6605L7.6605 9.92949L6.9605 9.93008ZM5.69674 8.662L5.69972 7.962H5.69674V8.662ZM2.26376 8.662V7.96199L2.26078 7.96201L2.26376 8.662ZM1 9.93008L0.3 9.92949V9.93008H1ZM9.93008 14.6236L9.9283 15.3236L9.9303 15.3236L9.93008 14.6236ZM8.662 13.3555H7.962L7.962 13.3573L8.662 13.3555ZM13.3555 14.6225L13.3562 13.9225H13.3553L13.3555 14.6225ZM14.6236 13.3749L15.3236 13.3857V13.3749H14.6236ZM14.6236 9.93008H15.3236L15.3236 9.9283L14.6236 9.93008ZM13.3555 8.662L13.3573 7.962H13.3555V8.662ZM9.93008 8.662V7.962L9.9283 7.962L9.93008 8.662ZM8.662 9.93008L7.962 9.9283V9.93008H8.662ZM2.26808 6.96158L2.26748 7.66158L2.2683 7.66158L2.26808 6.96158ZM5.67624 6.9605L5.67709 6.2605L5.67601 6.2605L5.67624 6.9605ZM6.9605 5.71293L7.66023 5.73236L7.6605 5.72264V5.71293H6.9605ZM6.9605 2.26808H7.6605L7.6605 2.26749L6.9605 2.26808ZM5.69674 1L5.69972 0.3H5.69674V1ZM2.26376 1V0.299994L2.26078 0.300006L2.26376 1ZM1 2.26808L0.3 2.26749V2.26808H1ZM7.962 5.69242C7.962 6.7793 8.8426 7.66066 9.92948 7.66158L9.93067 6.26158C9.61652 6.26131 9.362 6.00657 9.362 5.69242L7.962 5.69242ZM7.962 2.26808V5.69242H9.362V2.26808H7.962ZM9.92278 0.300006C8.83917 0.304613 7.96291 1.18387 7.962 2.26749L9.362 2.26867C9.36226 1.95546 9.61553 1.70133 9.92874 1.69999L9.92278 0.300006ZM13.3598 0.3H9.92576V1.7H13.3598V0.3ZM15.3236 2.26749C15.3227 1.18387 14.4464 0.304613 13.3628 0.300006L13.3568 1.69999C13.67 1.70133 13.9233 1.95546 13.9236 2.26867L15.3236 2.26749ZM15.3236 5.71293V2.26808H13.9236V5.71293H15.3236ZM14.7433 7.09805C15.1134 6.73271 15.3223 6.23473 15.3236 5.7147L13.9236 5.71115C13.9232 5.85798 13.8642 5.99859 13.7597 6.10174L14.7433 7.09805ZM13.3526 7.66046C13.8726 7.66585 14.3732 7.46339 14.7433 7.09805L13.7597 6.10174C13.6552 6.20489 13.5139 6.26206 13.3671 6.26054L13.3526 7.66046ZM9.9303 7.66158L13.36 7.6605L13.3596 6.2605L9.92986 6.26158L9.9303 7.66158ZM2.26867 13.9236C1.95471 13.9233 1.70027 13.6689 1.7 13.3549L0.3 13.3561C0.300924 14.4423 1.18125 15.3227 2.26748 15.3236L2.26867 13.9236ZM5.69652 13.9225L2.26786 13.9236L2.2683 15.3236L5.69696 15.3225L5.69652 13.9225ZM6.26096 13.3495C6.24951 13.6641 5.99501 13.9153 5.68029 13.9227L5.71319 15.3223C6.76835 15.2975 7.62163 14.4552 7.66004 13.4004L6.26096 13.3495ZM6.2605 9.93008V13.3749H7.6605V9.93008H6.2605ZM5.69376 9.36199C6.00697 9.36332 6.26024 9.61746 6.2605 9.93066L7.6605 9.92949C7.65959 8.84587 6.78333 7.96661 5.69972 7.96201L5.69376 9.36199ZM2.26376 9.362H5.69674V7.962H2.26376V9.362ZM1.7 9.93067C1.70026 9.61746 1.95353 9.36332 2.26674 9.36199L2.26078 7.96201C1.17717 7.96661 0.300912 8.84587 0.3 9.92949L1.7 9.93067ZM1.7 13.3555V9.93008H0.3V13.3555H1.7ZM9.93186 13.9236C9.61746 13.9228 9.3628 13.6681 9.362 13.3537L7.962 13.3573C7.96476 14.4421 8.84349 15.3208 9.9283 15.3236L9.93186 13.9236ZM13.3553 13.9225L9.92986 13.9236L9.9303 15.3236L13.3557 15.3225L13.3553 13.9225ZM13.9237 13.3642C13.9189 13.6741 13.6661 13.9228 13.3562 13.9225L13.3548 15.3225C14.4302 15.3235 15.307 14.4609 15.3235 13.3857L13.9237 13.3642ZM13.9236 9.93008V13.3749H15.3236V9.93008H13.9236ZM13.3537 9.362C13.6681 9.3628 13.9228 9.61746 13.9236 9.93186L15.3236 9.9283C15.3208 8.84349 14.4421 7.96476 13.3573 7.962L13.3537 9.362ZM9.93008 9.362H13.3555V7.962H9.93008V9.362ZM9.362 9.93186C9.3628 9.61746 9.61746 9.3628 9.93186 9.362L9.9283 7.962C8.84349 7.96476 7.96476 8.84349 7.962 9.9283L9.362 9.93186ZM9.362 13.3555V9.93008H7.962V13.3555H9.362ZM2.26867 6.26158C1.95453 6.26131 1.7 6.00657 1.7 5.69242H0.3C0.3 6.7793 1.1806 7.66066 2.26748 7.66158L2.26867 6.26158ZM5.67601 6.2605L2.26785 6.26158L2.2683 7.66158L5.67646 7.6605L5.67601 6.2605ZM6.26077 5.6935C6.252 6.00944 5.99315 6.26089 5.67709 6.2605L5.67538 7.6605C6.75017 7.66182 7.6304 6.80673 7.66023 5.73236L6.26077 5.6935ZM6.2605 2.26808V5.71293H7.6605V2.26808H6.2605ZM5.69376 1.69999C6.00697 1.70133 6.26024 1.95546 6.2605 2.26867L7.6605 2.26749C7.65959 1.18387 6.78333 0.304613 5.69972 0.300006L5.69376 1.69999ZM2.26376 1.7H5.69674V0.3H2.26376V1.7ZM1.7 2.26867C1.70026 1.95546 1.95353 1.70133 2.26674 1.69999L2.26078 0.300006C1.17717 0.304613 0.300912 1.18387 0.3 2.26749L1.7 2.26867ZM1.7 5.69242V2.26808H0.3V5.69242H1.7Z" fill="#D4D4D4"/>
</svg>
