<svg width="13" height="13" viewBox="0 0 13 13" fill="none" xmlns="http://www.w3.org/2000/svg">
<path fill-rule="evenodd" clip-rule="evenodd" d="M7.57039 6.30029L12.3197 11.0539C12.6711 11.4056 12.6708 11.9754 12.3192 12.3267C11.9675 12.678 11.3977 12.6778 11.0464 12.3262L6.29665 7.57214L1.53592 12.3258C1.18419 12.677 0.614341 12.6766 0.263131 12.3248C-0.0880795 11.9731 -0.0876559 11.4033 0.264077 11.0521L5.02444 6.29877L0.266085 1.53611C-0.0852282 1.18448 -0.0849704 0.614629 0.26666 0.263316C0.618291 -0.0879967 1.18814 -0.087739 1.53945 0.263892L6.29818 5.02692L11.0465 0.285609C11.3983 -0.0656014 11.9681 -0.0651779 12.3193 0.286555C12.6705 0.638288 12.6701 1.20814 12.3184 1.55935L7.57039 6.30029Z" fill="#D4D4D4"/>
</svg>
