<svg width="21" height="21" viewBox="0 0 21 21" fill="none" xmlns="http://www.w3.org/2000/svg">
<path fill-rule="evenodd" clip-rule="evenodd" d="M13.0019 11.2168V16.9737C13.0019 17.4023 12.7879 17.7941 12.4491 17.9858L8.44911 20.249C7.78421 20.6251 7.0019 20.078 7.0019 19.2368V11.2168L0.227939 1.84814C-0.306277 1.10929 0.15827 0 1.0019 0H19.0019C19.8455 0 20.3101 1.10929 19.7759 1.84814L13.0019 11.2168ZM10.8898 16.011V10.5496C10.8898 10.2883 10.9696 10.0352 11.1158 9.83299L16.7795 1.99985H3L8.66371 9.83299C8.80989 10.0352 8.88976 10.2883 8.88976 10.5496V17.1426L10.8898 16.011Z" fill="#D4D4D4"/>
</svg>
