<svg width="15" height="16" viewBox="0 0 15 16" fill="none" xmlns="http://www.w3.org/2000/svg">
<path d="M2.04575 9.65617V4.26087H12.2891L11.0865 5.49608C11.0375 5.54658 10.9986 5.60581 10.9721 5.67185C10.9455 5.73788 10.9318 5.8078 10.9318 5.87966C10.9318 5.95054 10.9455 6.02143 10.9721 6.08649C10.9986 6.15253 11.0375 6.21274 11.0865 6.26226C11.1351 6.31276 11.1929 6.35354 11.2567 6.38073C11.3204 6.40792 11.3887 6.42249 11.4577 6.42249C11.5268 6.42249 11.5951 6.40792 11.6588 6.38073C11.7225 6.35354 11.7804 6.31276 11.829 6.26226L13.9206 4.10453C13.9643 4.05792 13.9981 4.00354 14.0199 3.94236C14.055 3.87438 14.073 3.79864 14.0721 3.72193V3.66755C14.0777 3.62288 14.0777 3.57724 14.0721 3.53257C14.0751 3.51509 14.0751 3.49664 14.0721 3.47916C14.0486 3.41895 14.015 3.36457 13.9728 3.31699L11.8813 1.15926C11.7828 1.05729 11.6493 1 11.5101 1C11.3708 1 11.2373 1.05729 11.1388 1.15926C11.0403 1.26025 10.985 1.39814 10.985 1.54186C10.985 1.68558 11.0403 1.82347 11.1388 1.92544L12.2891 3.18201H2.04575C1.76841 3.18201 1.50243 3.29562 1.30628 3.49761C1.11022 3.70056 1 3.97441 1 4.26087V9.65617C1 9.79892 1.05506 9.93584 1.15314 10.0368C1.25122 10.1388 1.38425 10.1951 1.52292 10.1951C1.66159 10.1951 1.79453 10.1388 1.89261 10.0368C1.99069 9.93584 2.04575 9.79892 2.04575 9.65617Z" fill="#D4D4D4" stroke="#D4D4D4" stroke-width="0.4"/>
<path d="M14.0718 5.88C13.9332 5.88 13.8002 5.93633 13.7022 6.03732C13.6041 6.13928 13.549 6.2762 13.549 6.41895V11.8142H3.30563L4.50831 10.579C4.60677 10.4771 4.66203 10.3392 4.66203 10.1955C4.66203 10.0517 4.60677 9.91385 4.50831 9.81286C4.40984 9.7109 4.27631 9.65361 4.13706 9.65361C3.99781 9.65361 3.86429 9.7109 3.76582 9.81286L1.67422 11.9706C1.63208 12.0182 1.59838 12.0726 1.57488 12.1328C1.57197 12.1502 1.57197 12.1687 1.57488 12.1862C1.56944 12.2308 1.56944 12.2765 1.57488 12.3212V12.3532C1.57517 12.4105 1.58576 12.4678 1.60625 12.5212C1.628 12.5814 1.66179 12.6368 1.70559 12.6824L3.79719 14.8401C3.84574 14.8916 3.90362 14.9314 3.96732 14.9586C4.03102 14.9858 4.09939 15.0003 4.16843 15.0003C4.23747 15.0003 4.30574 14.9858 4.36954 14.9586C4.43324 14.9314 4.49102 14.8916 4.53967 14.8401C4.58871 14.7906 4.62755 14.7304 4.65416 14.6653C4.68067 14.5993 4.69436 14.5284 4.69436 14.4575C4.69436 14.3866 4.68067 14.3157 4.65416 14.2497C4.62755 14.1846 4.58871 14.1244 4.53967 14.0749L3.30563 12.8931H13.549C13.8264 12.8931 14.0923 12.7795 14.2885 12.5765C14.4846 12.3746 14.5948 12.0997 14.5948 11.8142V6.41895C14.5948 6.2762 14.5397 6.13928 14.4416 6.03732C14.3436 5.93633 14.2106 5.88 14.0718 5.88Z" fill="#D4D4D4" stroke="#D4D4D4" stroke-width="0.4"/>
</svg>
