<svg width="20" height="20" viewBox="0 0 20 20" fill="none" xmlns="http://www.w3.org/2000/svg">
<path fill-rule="evenodd" clip-rule="evenodd" d="M14.6271 13.7191L18.8451 17.9371C19.064 18.1926 19.0492 18.5735 18.8114 18.8114C18.5735 19.0492 18.1926 19.064 17.9371 18.8451L13.7191 14.6271C10.5564 17.3031 5.84607 17.0088 3.04093 13.9601C0.235785 10.9113 0.333921 6.19288 3.2634 3.2634C6.19288 0.333921 10.9113 0.235785 13.9601 3.04093C17.0088 5.84607 17.3031 10.5564 14.6271 13.7191ZM8.72831 2.29501C5.17174 2.29501 2.28857 5.17818 2.28857 8.73475C2.28857 10.4427 2.96704 12.0807 4.17472 13.2883C5.38241 14.496 7.02038 15.1745 8.72831 15.1745C12.2849 15.1745 15.1681 12.2913 15.1681 8.73475C15.1681 5.17818 12.2849 2.29501 8.72831 2.29501Z" fill="#F6F6F6"/>
<path d="M18.8451 17.9371L19.073 17.742L19.0655 17.7332L19.0573 17.725L18.8451 17.9371ZM14.6271 13.7191L14.3981 13.5253L14.2198 13.7361L14.415 13.9312L14.6271 13.7191ZM17.9371 18.8451L17.725 19.0573L17.7332 19.0655L17.742 19.073L17.9371 18.8451ZM13.7191 14.6271L13.9312 14.415L13.7361 14.2198L13.5253 14.3981L13.7191 14.6271ZM3.04093 13.9601L3.2617 13.757L3.04093 13.9601ZM13.9601 3.04093L13.757 3.2617L13.9601 3.04093ZM4.17472 13.2883L3.96259 13.5005H3.96259L4.17472 13.2883ZM19.0573 17.725L14.8392 13.507L14.415 13.9312L18.633 18.1493L19.0573 17.725ZM19.0235 19.0235C19.3722 18.6748 19.3938 18.1165 19.073 17.742L18.6173 18.1323C18.7342 18.2688 18.7263 18.4722 18.5993 18.5993L19.0235 19.0235ZM17.742 19.073C18.1165 19.3938 18.6748 19.3722 19.0235 19.0235L18.5993 18.5993C18.4722 18.7263 18.2688 18.7342 18.1323 18.6173L17.742 19.073ZM13.507 14.8392L17.725 19.0573L18.1493 18.633L13.9312 14.415L13.507 14.8392ZM2.82016 14.1632C5.7342 17.3303 10.6274 17.636 13.9129 14.8561L13.5253 14.3981C10.4854 16.9702 5.95794 16.6873 3.2617 13.757L2.82016 14.1632ZM3.05127 3.05127C0.00806212 6.09447 -0.0938834 10.9961 2.82016 14.1632L3.2617 13.757C0.565453 10.8266 0.659779 6.29128 3.47553 3.47553L3.05127 3.05127ZM14.1632 2.82016C10.9961 -0.0938834 6.09447 0.00806212 3.05127 3.05127L3.47553 3.47553C6.29128 0.659779 10.8266 0.565453 13.757 3.2617L14.1632 2.82016ZM14.8561 13.9129C17.636 10.6274 17.3303 5.7342 14.1632 2.82016L13.757 3.2617C16.6873 5.95794 16.9702 10.4854 14.3981 13.5253L14.8561 13.9129ZM2.58857 8.73475C2.58857 5.34386 5.33742 2.59501 8.72831 2.59501V1.99501C5.00605 1.99501 1.98857 5.01249 1.98857 8.73475H2.58857ZM4.38686 13.0762C3.23543 11.9248 2.58857 10.3631 2.58857 8.73475H1.98857C1.98857 10.5222 2.69864 12.2365 3.96259 13.5005L4.38686 13.0762ZM8.72831 14.8745C7.09995 14.8745 5.53828 14.2276 4.38686 13.0762L3.96259 13.5005C5.22654 14.7644 6.94082 15.4745 8.72831 15.4745V14.8745ZM14.8681 8.73475C14.8681 12.1256 12.1192 14.8745 8.72831 14.8745V15.4745C12.4506 15.4745 15.4681 12.457 15.4681 8.73475H14.8681ZM8.72831 2.59501C12.1192 2.59501 14.8681 5.34386 14.8681 8.73475H15.4681C15.4681 5.01249 12.4506 1.99501 8.72831 1.99501V2.59501Z" fill="#F6F6F6"/>
</svg>
