<svg width="16" height="16" viewBox="0 0 16 16" fill="none" xmlns="http://www.w3.org/2000/svg">
<path fill-rule="evenodd" clip-rule="evenodd" d="M8.27422 1.72106L14.2742 7.72106C14.5255 7.97192 14.6676 8.31187 14.6695 8.66695C14.6717 9.02109 14.5296 9.36086 14.2761 9.60812L9.60975 14.2745C9.36249 14.528 9.02272 14.67 8.66857 14.6679C8.31587 14.6693 7.97714 14.5301 7.7274 14.2811L1.7274 8.28106C1.47507 8.03067 1.3334 7.68972 1.33399 7.33424V2.66789C1.33605 1.93219 1.93194 1.33631 2.66763 1.33424H7.33305C7.68575 1.33279 8.02448 1.47201 8.27422 1.72106ZM2.66666 7.33463L8.66666 13.3412L13.333 8.66169L7.33302 2.66169V2.66828H2.66666V7.33463Z" fill="#D4D4D4"/>
<path d="M14.2742 7.72106L14.2035 7.79177L14.2036 7.79184L14.2742 7.72106ZM8.27422 1.72106L8.34493 1.65035L8.34483 1.65025L8.27422 1.72106ZM14.6695 8.66695L14.5695 8.66749V8.66755L14.6695 8.66695ZM14.2761 9.60812L14.2063 9.53652L14.2054 9.53741L14.2761 9.60812ZM9.60975 14.2745L9.53903 14.2038L9.53816 14.2047L9.60975 14.2745ZM8.66857 14.6679L8.66918 14.5679L8.66816 14.5679L8.66857 14.6679ZM7.7274 14.2811L7.65669 14.3518L7.65679 14.3519L7.7274 14.2811ZM1.7274 8.28106L1.79811 8.21035L1.79784 8.21008L1.7274 8.28106ZM1.33399 7.33424L1.43399 7.3344V7.33424H1.33399ZM1.33399 2.66789L1.23399 2.66761V2.66789H1.33399ZM2.66763 1.33424V1.23424L2.66735 1.23424L2.66763 1.33424ZM7.33305 1.33424V1.43424L7.33346 1.43424L7.33305 1.33424ZM8.66666 13.3412L8.59592 13.4119L8.66673 13.4828L8.73747 13.4118L8.66666 13.3412ZM2.66666 7.33463H2.56666V7.37602L2.59592 7.4053L2.66666 7.33463ZM13.333 8.66169L13.4038 8.7323L13.4743 8.66159L13.4037 8.59098L13.333 8.66169ZM7.33302 2.66169L7.40373 2.59098L7.23302 2.42027V2.66169H7.33302ZM7.33302 2.66828V2.76828H7.43302V2.66828H7.33302ZM2.66666 2.66828V2.56828H2.56666V2.66828H2.66666ZM14.3449 7.65035L8.34493 1.65035L8.20351 1.79177L14.2035 7.79177L14.3449 7.65035ZM14.7695 8.6664C14.7674 8.28496 14.6148 7.91977 14.3449 7.65029L14.2036 7.79184C14.4362 8.02407 14.5677 8.33878 14.5695 8.66749L14.7695 8.6664ZM14.3459 9.67971C14.6189 9.41349 14.7718 9.04765 14.7695 8.66634L14.5695 8.66755C14.5715 8.99453 14.4404 9.30824 14.2063 9.53653L14.3459 9.67971ZM9.68046 14.3452L14.3468 9.67883L14.2054 9.53741L9.53904 14.2038L9.68046 14.3452ZM8.66797 14.7679C9.04927 14.7702 9.41512 14.6173 9.68134 14.3443L9.53816 14.2047C9.30987 14.4388 8.99616 14.5699 8.66918 14.5679L8.66797 14.7679ZM7.65679 14.3519C7.92538 14.6197 8.28967 14.7694 8.66898 14.7679L8.66816 14.5679C8.34208 14.5692 8.02891 14.4405 7.79801 14.2103L7.65679 14.3519ZM1.65669 8.35177L7.65669 14.3518L7.79811 14.2104L1.79811 8.21035L1.65669 8.35177ZM1.23399 7.33408C1.23336 7.71627 1.38567 8.08283 1.65696 8.35205L1.79784 8.21008C1.56447 7.9785 1.43345 7.66318 1.43399 7.3344L1.23399 7.33408ZM1.23399 2.66789V7.33424H1.43399V2.66789H1.23399ZM2.66735 1.23424C1.87665 1.23646 1.23621 1.8769 1.23399 2.66761L1.43399 2.66817C1.4359 1.98748 1.98723 1.43615 2.66791 1.43424L2.66735 1.23424ZM7.33305 1.23424H2.66763V1.43424H7.33305V1.23424ZM8.34483 1.65025C8.07624 1.38241 7.71195 1.23268 7.33263 1.23424L7.33346 1.43424C7.65954 1.4329 7.97271 1.56161 8.20361 1.79187L8.34483 1.65025ZM8.73741 13.2705L2.73741 7.26396L2.59592 7.4053L8.59592 13.4119L8.73741 13.2705ZM13.2622 8.59108L8.59585 13.2706L8.73747 13.4118L13.4038 8.7323L13.2622 8.59108ZM7.26231 2.7324L13.2623 8.7324L13.4037 8.59098L7.40373 2.59098L7.26231 2.7324ZM7.43302 2.66828V2.66169H7.23302V2.66828H7.43302ZM2.66666 2.76828H7.33302V2.56828H2.66666V2.76828ZM2.76666 7.33463V2.66828H2.56666V7.33463H2.76666Z" fill="#D4D4D4"/>
<circle cx="5.47984" cy="5.47984" r="0.64" fill="#D4D4D4" stroke="#D4D4D4" stroke-width="0.2"/>
</svg>
