<svg width="11" height="11" viewBox="0 0 11 11" fill="none" xmlns="http://www.w3.org/2000/svg">
<path fill-rule="evenodd" clip-rule="evenodd" d="M6.11111 4.88889H10.3889C10.7264 4.88889 11 5.16249 11 5.5C11 5.83751 10.7264 6.11111 10.3889 6.11111H6.11111V10.3889C6.11111 10.7264 5.83751 11 5.5 11C5.16249 11 4.88889 10.7264 4.88889 10.3889V6.11111H0.611111C0.273604 6.11111 0 5.83751 0 5.5C0 5.16249 0.273604 4.88889 0.611111 4.88889H4.88889V0.611111C4.88889 0.273604 5.16249 0 5.5 0C5.83751 0 6.11111 0.273604 6.11111 0.611111V4.88889Z" fill="#5F8FE3"/>
</svg>
