<svg width="24" height="24" viewBox="0 0 24 24" fill="none" xmlns="http://www.w3.org/2000/svg">
<path fill-rule="evenodd" clip-rule="evenodd" d="M13.2447 10.7559H21.9559C22.6431 10.7559 23.2003 11.3131 23.2003 12.0004C23.2003 12.6876 22.6431 13.2448 21.9559 13.2448H13.2447V21.9559C13.2447 22.6432 12.6876 23.2004 12.0003 23.2004C11.313 23.2004 10.7558 22.6432 10.7558 21.9559V13.2448H2.04474C1.35745 13.2448 0.800293 12.6876 0.800293 12.0004C0.800293 11.3131 1.35745 10.7559 2.04474 10.7559H10.7558V2.0448C10.7558 1.35751 11.313 0.800354 12.0003 0.800354C12.6876 0.800354 13.2447 1.35751 13.2447 2.0448V10.7559Z" fill="#FAFAFB" stroke="#FAFAFB" stroke-width="0.8"/>
</svg>
