<svg width="15" height="17" viewBox="0 0 15 17" fill="none" xmlns="http://www.w3.org/2000/svg">
<path fill-rule="evenodd" clip-rule="evenodd" d="M1.08491 3.63715C1.00377 3.50649 0.979559 3.35025 1.01757 3.20315C1.05558 3.05514 1.15261 2.92814 1.28747 2.84865L4.26686 1.12364C4.33374 1.07247 4.41122 1.03593 4.4939 1.01674C4.57668 0.996638 4.66284 0.99481 4.74653 1.01034C4.83022 1.02496 4.90953 1.05785 4.97915 1.10536C5.04877 1.15288 5.10698 1.21409 5.15001 1.28444C5.19304 1.35571 5.21972 1.4352 5.2284 1.51652C5.23708 1.59875 5.22749 1.68098 5.20026 1.75864C5.17303 1.83721 5.12881 1.90848 5.07061 1.96878C5.01232 2.02817 4.94151 2.07568 4.86275 2.10675L1.88336 3.83267C1.74814 3.91125 1.58633 3.93409 1.43338 3.89754C1.28034 3.861 1.14859 3.7678 1.067 3.63715H1.08491ZM10.015 1.76795C10.0418 1.90409 10.1187 2.02743 10.2316 2.11332L13.211 3.83833C13.344 3.89132 13.4923 3.8968 13.6286 3.85203C13.7649 3.80726 13.8799 3.71681 13.9525 3.59712C14.0251 3.47743 14.0503 3.33672 14.0236 3.19967C13.9969 3.06353 13.9199 2.9411 13.8069 2.85522L10.8275 1.12929C10.6946 1.0763 10.5463 1.07173 10.41 1.11559C10.2738 1.16036 10.1587 1.25081 10.0861 1.3705C10.0135 1.49019 9.98823 1.63181 10.015 1.76795ZM7.55671 3.34375C6.2603 3.34375 4.99304 3.7147 3.91518 4.41C2.83723 5.10531 1.99711 6.0939 1.50108 7.24969C1.00496 8.4064 0.875123 9.67914 1.12803 10.9062C1.38093 12.1342 2.00524 13.2616 2.92193 14.1461C3.83861 15.0314 5.00647 15.6344 6.27793 15.8784C7.5494 16.1223 8.86737 15.9972 10.065 15.5184C11.2627 15.0387 12.2864 14.2283 13.0067 13.1876C13.7269 12.147 14.1113 10.9236 14.1113 9.67183C14.1113 7.99342 13.4207 6.38353 12.1915 5.19759C10.9622 4.01073 9.29506 3.34375 7.55671 3.34375ZM7.55567 14.8491C6.49499 14.8491 5.45816 14.5449 4.57619 13.9766C3.69431 13.4074 3.00696 12.5988 2.60102 11.6522C2.19516 10.7065 2.0889 9.66587 2.29585 8.66084C2.5028 7.65671 3.01354 6.7339 3.76357 6.01028C4.5136 5.28574 5.46912 4.79327 6.50943 4.59317C7.54973 4.39308 8.62805 4.49633 9.60796 4.88829C10.5879 5.27934 11.4254 5.94358 12.0147 6.79512C12.604 7.64666 12.9186 8.64713 12.9186 9.67136C12.9186 11.0446 12.3535 12.3612 11.3478 13.3324C10.342 14.3037 8.97798 14.8491 7.55567 14.8491ZM9.91518 11.176C9.87945 11.1047 9.82874 11.0407 9.76643 10.9896L8.15161 9.43633V6.22021C8.15161 6.06763 8.08884 5.92144 7.97701 5.81363C7.86527 5.70581 7.71378 5.6446 7.55572 5.6446C7.39765 5.6446 7.24607 5.70581 7.13433 5.81363C7.02259 5.92144 6.95982 6.06763 6.95982 6.22021V9.67206C6.9621 9.82373 7.02633 9.96809 7.13862 10.075L8.92622 11.8009C8.97967 11.8603 9.04536 11.9096 9.11928 11.9444C9.1932 11.9791 9.27378 11.9983 9.35583 12.001C9.43788 12.0037 9.51974 11.991 9.59612 11.9617C9.6726 11.9334 9.74204 11.8895 9.80015 11.8329C9.85826 11.7772 9.90367 11.7095 9.93363 11.6365C9.9636 11.5624 9.9774 11.483 9.9742 11.4044C9.9711 11.3249 9.95099 11.2472 9.91518 11.176Z" fill="#D4D4D4"/>
<path d="M1.01757 3.20315L1.21121 3.25319L1.21128 3.2529L1.01757 3.20315ZM1.08491 3.63715V3.83715H1.44453L1.25481 3.53164L1.08491 3.63715ZM1.28747 2.84865L1.18725 2.67556L1.18591 2.67635L1.28747 2.84865ZM4.26686 1.12364L4.36707 1.29672L4.37818 1.29029L4.38838 1.28248L4.26686 1.12364ZM4.4939 1.01674L4.53911 1.21157L4.5411 1.21109L4.4939 1.01674ZM4.74653 1.01034L4.71004 1.207L4.71212 1.20736L4.74653 1.01034ZM4.97915 1.10536L4.86642 1.27056L4.86642 1.27056L4.97915 1.10536ZM5.15001 1.28444L5.32122 1.18106L5.32062 1.18008L5.15001 1.28444ZM5.2284 1.51652L5.4273 1.49552L5.42727 1.49529L5.2284 1.51652ZM5.20026 1.75864L5.01152 1.69247L5.01128 1.69316L5.20026 1.75864ZM5.07061 1.96878L5.21335 2.10889L5.21452 2.10767L5.07061 1.96878ZM4.86275 2.10675L4.78937 1.9207L4.77545 1.92619L4.7625 1.93369L4.86275 2.10675ZM1.88336 3.83267L1.78311 3.65961L1.78288 3.65975L1.88336 3.83267ZM1.43338 3.89754L1.47986 3.70302L1.47983 3.70301L1.43338 3.89754ZM1.067 3.63715V3.43715H0.706308L0.897358 3.74308L1.067 3.63715ZM10.2316 2.11332L10.1106 2.27251L10.1206 2.28011L10.1314 2.2864L10.2316 2.11332ZM10.015 1.76795L10.2112 1.72936V1.72936L10.015 1.76795ZM13.211 3.83833L13.1108 4.01141L13.1234 4.01871L13.137 4.02411L13.211 3.83833ZM13.6286 3.85203L13.5662 3.66202L13.5661 3.66203L13.6286 3.85203ZM13.9525 3.59712L13.7815 3.49335L13.7814 3.49345L13.9525 3.59712ZM14.0236 3.19967L14.2198 3.16133L14.2198 3.16121L14.0236 3.19967ZM13.8069 2.85522L13.928 2.69602L13.918 2.68844L13.9072 2.68216L13.8069 2.85522ZM10.8275 1.12929L10.9278 0.956232L10.9152 0.948915L10.9016 0.943509L10.8275 1.12929ZM10.41 1.11559L10.3487 0.925194L10.3475 0.925585L10.41 1.11559ZM10.0861 1.3705L9.91511 1.26674L9.91505 1.26684L10.0861 1.3705ZM3.91518 4.41L4.02359 4.57807L4.0236 4.57807L3.91518 4.41ZM1.50108 7.24969L1.31729 7.17081L1.31727 7.17086L1.50108 7.24969ZM1.12803 10.9062L1.32392 10.8659L1.32391 10.8658L1.12803 10.9062ZM2.92193 14.1461L3.06087 14.0022L3.0608 14.0021L2.92193 14.1461ZM6.27793 15.8784L6.31562 15.682L6.27793 15.8784ZM10.065 15.5184L10.1392 15.7041L10.1394 15.7041L10.065 15.5184ZM13.0067 13.1876L13.1711 13.3015L13.0067 13.1876ZM12.1915 5.19759L12.0526 5.34147L12.0526 5.34152L12.1915 5.19759ZM4.57619 13.9766L4.46773 14.1446L4.46786 14.1447L4.57619 13.9766ZM2.60102 11.6522L2.78483 11.5734L2.7848 11.5733L2.60102 11.6522ZM2.29585 8.66084L2.09997 8.62047L2.09996 8.6205L2.29585 8.66084ZM3.76357 6.01028L3.90244 6.15421L3.90253 6.15412L3.76357 6.01028ZM9.60796 4.88829L9.53368 5.07399L9.53383 5.07404L9.60796 4.88829ZM12.0147 6.79512L12.1792 6.68132L12.1792 6.68131L12.0147 6.79512ZM11.3478 13.3324L11.2088 13.1886L11.3478 13.3324ZM9.76643 10.9896L9.62779 11.1337L9.63345 11.1392L9.63951 11.1441L9.76643 10.9896ZM9.91518 11.176L9.73638 11.2656L9.73648 11.2658L9.91518 11.176ZM8.15161 9.43633H7.95161V9.52146L8.01296 9.58048L8.15161 9.43633ZM7.97701 5.81363L7.83814 5.95756L7.8382 5.95761L7.97701 5.81363ZM7.13433 5.81363L7.2732 5.95756H7.2732L7.13433 5.81363ZM6.95982 9.67206H6.7598L6.75984 9.67507L6.95982 9.67206ZM7.13862 10.075L7.27755 9.9311L7.27653 9.93013L7.13862 10.075ZM8.92622 11.8009L9.07525 11.6668L9.06514 11.657L8.92622 11.8009ZM9.11928 11.9444L9.03425 12.1254H9.03425L9.11928 11.9444ZM9.59612 11.9617L9.52666 11.7742L9.52463 11.7749L9.59612 11.9617ZM9.80015 11.8329L9.6617 11.6885L9.66054 11.6897L9.80015 11.8329ZM9.93363 11.6365L10.1187 11.7123L10.119 11.7115L9.93363 11.6365ZM9.9742 11.4044L9.77435 11.4122L9.77437 11.4125L9.9742 11.4044ZM0.823927 3.15312C0.772069 3.35382 0.805412 3.56618 0.914999 3.74265L1.25481 3.53164C1.20213 3.4468 1.18705 3.34669 1.21121 3.25319L0.823927 3.15312ZM1.18591 2.67635C1.00687 2.78188 0.875535 2.95215 0.823853 3.15341L1.21128 3.2529C1.23562 3.15813 1.29834 3.07439 1.38902 3.02095L1.18591 2.67635ZM4.16664 0.950555L1.18725 2.67557L1.38768 3.02173L4.36707 1.29672L4.16664 0.950555ZM4.44869 0.821915C4.33838 0.847512 4.23487 0.896292 4.14533 0.964791L4.38838 1.28248C4.4326 1.24865 4.48405 1.22434 4.53911 1.21156L4.44869 0.821915ZM4.78303 0.813701C4.67242 0.793174 4.55772 0.795429 4.44671 0.822386L4.5411 1.21109C4.59564 1.19785 4.65326 1.19645 4.71004 1.20698L4.78303 0.813701ZM5.09189 0.940165C4.99947 0.877098 4.89359 0.833002 4.78095 0.813326L4.71212 1.20736C4.76686 1.21692 4.81959 1.23861 4.86642 1.27056L5.09189 0.940165ZM5.32062 1.18008C5.26268 1.08535 5.18467 1.00348 5.09189 0.940165L4.86642 1.27056C4.91288 1.30227 4.95127 1.34283 4.9794 1.38881L5.32062 1.18008ZM5.42727 1.49529C5.41547 1.38476 5.3793 1.27725 5.32122 1.18106L4.9788 1.38783C5.00679 1.43417 5.02397 1.48563 5.02953 1.53775L5.42727 1.49529ZM5.389 1.82481C5.42604 1.71915 5.43908 1.60715 5.4273 1.49552L5.02951 1.53751C5.03508 1.59035 5.02894 1.6428 5.01152 1.69247L5.389 1.82481ZM5.21452 2.10767C5.29236 2.02703 5.35225 1.93088 5.38924 1.82412L5.01128 1.69316C4.99382 1.74355 4.96527 1.78993 4.9267 1.82989L5.21452 2.10767ZM4.93614 2.2928C5.04149 2.25124 5.1358 2.18788 5.21334 2.10888L4.92788 1.82869C4.88883 1.86846 4.84153 1.90012 4.78937 1.9207L4.93614 2.2928ZM1.98361 4.00573L4.963 2.27981L4.7625 1.93369L1.78311 3.65961L1.98361 4.00573ZM1.3869 4.09207C1.5888 4.14031 1.80335 4.11048 1.98385 4.0056L1.78288 3.65975C1.69293 3.71202 1.58385 3.72787 1.47986 3.70302L1.3869 4.09207ZM0.897358 3.74308C1.00772 3.91981 1.18453 4.04374 1.38692 4.09207L1.47983 3.70301C1.37615 3.67825 1.28946 3.61579 1.23664 3.53121L0.897358 3.74308ZM1.08491 3.43715H1.067V3.83715H1.08491V3.43715ZM10.3527 1.95412C10.2783 1.89751 10.2284 1.81684 10.2112 1.72936L9.81876 1.80654C9.8551 1.99133 9.95915 2.15735 10.1106 2.27251L10.3527 1.95412ZM13.3112 3.66524L10.3318 1.94023L10.1314 2.2864L13.1108 4.01141L13.3112 3.66524ZM13.5661 3.66203C13.4753 3.69188 13.3752 3.68847 13.2851 3.65254L13.137 4.02411C13.3127 4.09417 13.5094 4.10172 13.691 4.04203L13.5661 3.66203ZM13.7814 3.49345C13.7344 3.57112 13.6585 3.6317 13.5662 3.66202L13.691 4.04205C13.8713 3.98282 14.0255 3.86249 14.1235 3.70078L13.7814 3.49345ZM13.8273 3.23801C13.8444 3.32597 13.8284 3.41604 13.7815 3.49335L14.1234 3.70088C14.2218 3.53882 14.2562 3.34747 14.2198 3.16133L13.8273 3.23801ZM13.6859 3.01441C13.7608 3.07139 13.8103 3.15131 13.8273 3.23813L14.2198 3.16121C14.1835 2.97575 14.0789 2.81082 13.928 2.69602L13.6859 3.01441ZM10.7273 1.30235L13.7067 3.02828L13.9072 2.68216L10.9278 0.956232L10.7273 1.30235ZM10.4712 1.30598C10.5638 1.27621 10.6642 1.27948 10.7535 1.31508L10.9016 0.943509C10.725 0.873114 10.5288 0.867252 10.3487 0.925197L10.4712 1.30598ZM10.2571 1.47426C10.3043 1.39649 10.3802 1.3359 10.4724 1.30559L10.3475 0.925585C10.1673 0.984817 10.0132 1.10513 9.91511 1.26674L10.2571 1.47426ZM10.2112 1.72936C10.1942 1.64257 10.2102 1.55162 10.2571 1.47417L9.91505 1.26684C9.81691 1.42876 9.78229 1.62106 9.81876 1.80654L10.2112 1.72936ZM4.0236 4.57807C5.06876 3.90386 6.2983 3.54375 7.55671 3.54375V3.14375C6.2223 3.14375 4.91732 3.52554 3.80676 4.24194L4.0236 4.57807ZM1.68487 7.32857C2.16489 6.21007 2.97841 5.25224 4.02359 4.57807L3.80677 4.24193C2.69606 4.95837 1.82933 5.97772 1.31729 7.17081L1.68487 7.32857ZM1.32391 10.8658C1.0793 9.679 1.2048 8.44785 1.68489 7.32853L1.31727 7.17086C0.805114 8.36495 0.670949 9.67929 0.932145 10.9466L1.32391 10.8658ZM3.0608 14.0021C2.17262 13.1452 1.56855 12.0537 1.32392 10.8659L0.932139 10.9465C1.19331 12.2147 1.83786 13.3781 2.78306 14.29L3.0608 14.0021ZM6.31562 15.682C5.08168 15.4452 3.94918 14.8602 3.06087 14.0022L2.78299 14.2899C3.72805 15.2027 4.93126 15.8237 6.24025 16.0748L6.31562 15.682ZM9.99077 15.3327C8.8288 15.7972 7.54969 15.9188 6.31562 15.682L6.24025 16.0748C7.54911 16.3259 8.90593 16.1971 10.1392 15.7041L9.99077 15.3327ZM12.8422 13.0738C12.1448 14.0815 11.1528 14.8673 9.99065 15.3327L10.1394 15.7041C11.3727 15.2101 12.428 14.3751 13.1711 13.3015L12.8422 13.0738ZM13.9113 9.67183C13.9113 10.8824 13.5396 12.0662 12.8422 13.0738L13.1711 13.3015C13.9142 12.2277 14.3113 10.9647 14.3113 9.67183H13.9113ZM12.0526 5.34152C13.2436 6.49051 13.9113 8.04875 13.9113 9.67183H14.3113C14.3113 7.93809 13.5979 6.27656 12.3303 5.05365L12.0526 5.34152ZM7.55671 3.54375C9.24422 3.54375 10.8613 4.19129 12.0526 5.34147L12.3304 5.05371C11.0632 3.83017 9.3459 3.14375 7.55671 3.14375V3.54375ZM4.46786 14.1447C5.3824 14.734 6.45689 15.0491 7.55567 15.0491V14.6491C6.53309 14.6491 5.53391 14.3558 4.68452 13.8085L4.46786 14.1447ZM2.41721 11.731C2.83916 12.7149 3.55313 13.5543 4.46773 14.1446L4.68465 13.8085C3.83549 13.2604 3.17476 12.4826 2.78483 11.5734L2.41721 11.731ZM2.09996 8.6205C1.88474 9.66572 1.99531 10.748 2.41723 11.7311L2.7848 11.5733C2.39502 10.6651 2.29307 9.66603 2.49174 8.70117L2.09996 8.6205ZM3.62471 5.86634C2.84614 6.6175 2.31518 7.57622 2.09997 8.62047L2.49173 8.70121C2.69041 7.73721 3.18093 6.85031 3.90244 6.15421L3.62471 5.86634ZM6.47165 4.39677C5.39399 4.60405 4.40311 5.11439 3.62461 5.86643L3.90253 6.15412C4.62409 5.45708 5.54425 4.98248 6.5472 4.78957L6.47165 4.39677ZM9.68223 4.70259C8.66673 4.29639 7.54952 4.18946 6.47165 4.39677L6.5472 4.78957C7.54994 4.5967 8.58936 4.69626 9.53368 5.07399L9.68223 4.70259ZM12.1792 6.68131C11.5671 5.79687 10.6979 5.10791 9.68209 4.70253L9.53383 5.07404C10.4778 5.45077 11.2837 6.09029 11.8503 6.90894L12.1792 6.68131ZM13.1186 9.67136C13.1186 8.60595 12.7913 7.56587 12.1792 6.68132L11.8503 6.90892C12.4167 7.72745 12.7186 8.68831 12.7186 9.67136H13.1186ZM11.4867 13.4763C12.5307 12.4682 13.1186 11.1 13.1186 9.67136H12.7186C12.7186 10.9892 12.1764 12.2542 11.2088 13.1886L11.4867 13.4763ZM7.55567 15.0491C9.0288 15.0491 10.4429 14.4842 11.4867 13.4763L11.2088 13.1886C10.2411 14.1231 8.92716 14.6491 7.55567 14.6491V15.0491ZM9.63951 11.1441C9.67991 11.1773 9.71306 11.2191 9.73638 11.2656L10.094 11.0863C10.0458 10.9903 9.97758 10.9042 9.89335 10.835L9.63951 11.1441ZM8.01296 9.58048L9.62779 11.1337L9.90508 10.8454L8.29026 9.29219L8.01296 9.58048ZM7.95161 6.22021V9.43633H8.35161V6.22021H7.95161ZM7.8382 5.95761C7.91172 6.02849 7.95161 6.12303 7.95161 6.22021H8.35161C8.35161 6.01223 8.26597 5.81439 8.11582 5.66964L7.8382 5.95761ZM7.55572 5.8446C7.66242 5.8446 7.764 5.88602 7.83814 5.95756L8.11588 5.6697C7.96654 5.52561 7.76514 5.4446 7.55572 5.4446V5.8446ZM7.2732 5.95756C7.34732 5.88604 7.44898 5.8446 7.55572 5.8446V5.4446C7.34632 5.4446 7.14483 5.52559 6.99546 5.6697L7.2732 5.95756ZM7.15982 6.22021C7.15982 6.12302 7.19972 6.02845 7.2732 5.95756L6.99546 5.6697C6.84546 5.81443 6.75982 6.01224 6.75982 6.22021H7.15982ZM7.15982 9.67206V6.22021H6.75982V9.67206H7.15982ZM7.27653 9.93013C7.202 9.85918 7.16125 9.76547 7.1598 9.66905L6.75984 9.67507C6.76296 9.88199 6.85067 10.077 7.00072 10.2198L7.27653 9.93013ZM9.06514 11.657L7.27754 9.93111L6.99971 10.2189L8.7873 11.9448L9.06514 11.657ZM9.20431 11.7633C9.15498 11.7402 9.11081 11.707 9.07488 11.6671L8.77756 11.9347C8.84854 12.0136 8.93575 12.0791 9.03425 12.1254L9.20431 11.7633ZM9.36251 11.8011C9.30716 11.7993 9.25328 11.7863 9.20431 11.7633L9.03425 12.1254C9.13311 12.1718 9.2404 12.1973 9.34915 12.2009L9.36251 11.8011ZM9.52463 11.7749C9.47463 11.7941 9.41949 11.803 9.36251 11.8011L9.34915 12.2009C9.45626 12.2045 9.56486 12.1878 9.66762 12.1485L9.52463 11.7749ZM9.66054 11.6897C9.62254 11.7267 9.57702 11.7555 9.52666 11.7742L9.66559 12.1493C9.76817 12.1113 9.86154 12.0524 9.93976 11.9761L9.66054 11.6897ZM9.74858 11.5606C9.72898 11.6084 9.69924 11.6526 9.66171 11.6885L9.93859 11.9772C10.0173 11.9018 10.0784 11.8107 10.1187 11.7123L9.74858 11.5606ZM9.77437 11.4125C9.7764 11.4624 9.76761 11.5136 9.74826 11.5614L10.119 11.7115C10.1596 11.6113 10.1784 11.5035 10.174 11.3962L9.77437 11.4125ZM9.73648 11.2658C9.75954 11.3117 9.77237 11.3614 9.77435 11.4122L10.174 11.3966C10.1698 11.2884 10.1424 11.1828 10.0939 11.0862L9.73648 11.2658Z" fill="#D4D4D4"/>
</svg>
